@startuml template state machine

[*] --> Running
state Running{
[*] --> Init
Init --> NotReady : on_status_changed(not_ready)
Ready --> NotReady : on_status_changed(not_ready)
NotReady --> Ready : on_status_changed(ready)
Ready --> Ready : event_send_hello
}
Running --> [*] : event_factory_reset
Running --> Running : event_link_switch
Running --> FirmwareUpdate : event_dfu
FirmwareUpdate --> Running : ?
@enduml
